<svg width="40" height="40" viewBox="0 0 40 40" fill="none" xmlns="http://www.w3.org/2000/svg">
<path d="M35.9 25H28.3333C27.4493 25 26.6014 25.3512 25.9763 25.9763C25.3512 26.6014 25 27.4493 25 28.3333V35.9" stroke="#0032BA" stroke-width="3" stroke-linecap="round" stroke-linejoin="round"/>
<path d="M11.6667 5.56667V8.33333C11.6667 9.65941 12.1934 10.9312 13.1311 11.8689C14.0688 12.8065 15.3406 13.3333 16.6667 13.3333C17.5507 13.3333 18.3986 13.6845 19.0237 14.3096C19.6488 14.9348 20 15.7826 20 16.6667C20 18.5 21.5 20 23.3333 20C24.2174 20 25.0652 19.6488 25.6903 19.0237C26.3155 18.3986 26.6667 17.5507 26.6667 16.6667C26.6667 14.8333 28.1667 13.3333 30 13.3333H35.2833" stroke="#0032BA" stroke-width="3" stroke-linecap="round" stroke-linejoin="round"/>
<path d="M18.3333 36.5833V30C18.3333 29.1159 17.9821 28.2681 17.357 27.643C16.7319 27.0179 15.884 26.6667 15 26.6667C14.1159 26.6667 13.2681 26.3155 12.643 25.6904C12.0178 25.0652 11.6667 24.2174 11.6667 23.3333V21.6667C11.6667 20.7826 11.3155 19.9348 10.6903 19.3096C10.0652 18.6845 9.21738 18.3333 8.33332 18.3333H3.41666" stroke="#0032BA" stroke-width="3" stroke-linecap="round" stroke-linejoin="round"/>
<path d="M20 36.6667C29.2048 36.6667 36.6667 29.2047 36.6667 20C36.6667 10.7953 29.2048 3.33333 20 3.33333C10.7953 3.33333 3.33334 10.7953 3.33334 20C3.33334 29.2047 10.7953 36.6667 20 36.6667Z" stroke="#0032BA" stroke-width="3" stroke-linecap="round" stroke-linejoin="round"/>
</svg>
